<svg width="200" height="200" viewBox="0 0 200 200" fill="none" xmlns="http://www.w3.org/2000/svg">
<circle cx="100" cy="100" r="100" fill="#D52323"/>
<path d="M59.4321 62.0791C66.3634 62.0791 73.2077 63.1066 79.9648 65.1616L82.1069 65.7886L77.8228 77.9097L75.8374 77.335C69.533 75.5934 63.786 74.7227 58.5962 74.7227C53.4761 74.7227 49.0874 75.5586 45.4302 77.2305C41.8078 78.9023 39.9966 81.0444 39.9966 83.6567C39.9966 85.3634 40.7977 86.8612 42.3999 88.1499C44.0369 89.4386 46.1442 90.5358 48.7217 91.4414C51.2992 92.3122 54.1379 93.1829 57.2378 94.0537C60.3726 94.9245 63.5073 95.9346 66.6421 97.084C69.7769 98.2334 72.633 99.557 75.2104 101.055C77.7879 102.552 79.8778 104.555 81.48 107.063C83.117 109.536 83.9355 112.392 83.9355 115.631C83.9355 117.721 83.5698 119.794 82.8384 121.849C82.1418 123.869 80.9401 125.872 79.2334 127.857C77.5615 129.842 75.4717 131.584 72.9639 133.082C70.4909 134.544 67.3213 135.746 63.4551 136.687C59.6237 137.592 55.3221 138.045 50.5503 138.045C45.7785 138.045 41.4769 137.61 37.6455 136.739C33.8141 135.833 29.7563 134.544 25.4722 132.873L23.5391 132.141L27.98 119.498L30.0176 120.281C38.8298 123.416 46.092 124.983 51.8042 124.983C57.1681 124.983 61.5046 124.165 64.8135 122.528C68.1572 120.891 69.8291 118.731 69.8291 116.049C69.8291 114.552 69.3241 113.211 68.314 112.026C67.3039 110.842 65.9455 109.849 64.2388 109.048C62.5321 108.212 60.5641 107.446 58.335 106.75C56.1406 106.053 53.8244 105.374 51.3862 104.712C48.9481 104.05 46.5099 103.336 44.0718 102.57C41.6336 101.804 39.3 100.881 37.0708 99.8008C34.8765 98.721 32.9259 97.502 31.2192 96.1436C29.5125 94.7852 28.1541 93.0959 27.144 91.0757C26.134 89.0207 25.6289 86.7393 25.6289 84.2314C25.6289 77.9619 28.694 72.7025 34.8242 68.4531C40.9893 64.2038 49.1919 62.0791 59.4321 62.0791ZM174.583 126.237C167.373 134.109 157.063 138.045 143.653 138.045C137.941 138.045 132.716 137.313 127.979 135.851C123.277 134.353 119.341 132.385 116.171 129.947C113.002 127.474 110.32 124.583 108.125 121.274C105.966 117.965 104.399 114.534 103.423 110.981C102.448 107.394 101.96 103.719 101.96 99.9575C101.96 96.0216 102.5 92.2251 103.58 88.5679C104.66 84.9106 106.332 81.4798 108.596 78.2754C110.895 75.071 113.646 72.2845 116.851 69.916C120.09 67.5127 123.991 65.6318 128.554 64.2734C133.117 62.8802 138.097 62.1836 143.496 62.1836C153.353 62.1836 162.218 64.3779 170.089 68.7666L171.918 69.8115L166.432 80.1562L164.551 79.1636C162.078 77.9097 158.978 76.7951 155.251 75.8198C151.525 74.8097 147.78 74.3047 144.019 74.3047C140.326 74.3047 136.756 74.8794 133.308 76.0288C129.86 77.1782 126.777 78.7979 124.061 80.8877C121.379 82.9775 119.219 85.6421 117.582 88.8813C115.98 92.0858 115.179 95.6037 115.179 99.4351C115.179 104.486 116.502 109.031 119.149 113.071C121.797 117.112 125.454 120.264 130.121 122.528C134.823 124.757 140.1 125.872 145.952 125.872C152.361 125.872 157.603 124.426 161.678 121.535V107.272H138.428V95.6733H174.583V126.237Z" fill="white"/>
</svg>
